<svg xmlns="http://www.w3.org/2000/svg" xmlns:xlink="http://www.w3.org/1999/xlink" width="500" zoomAndPan="magnify" viewBox="0 0 375 374.999991" height="500" preserveAspectRatio="xMidYMid meet" version="1.0"><defs><g/><clipPath id="a2c5282fdb"><rect x="0" width="286" y="0" height="320"/></clipPath></defs><rect x="-37.5" width="450" fill="#ffffff" y="-37.499999" height="449.999989" fill-opacity="1"/><rect x="-37.5" width="450" fill="#222222" y="-37.499999" height="449.999989" fill-opacity="1"/><g transform="matrix(1, 0, 0, 1, 40, 27)"><g clip-path="url(#a2c5282fdb)"><g fill="#f6f4f0" fill-opacity="1"><g transform="translate(0.888307, 259.529113)"><g><path d="M 162.40625 0 L 104.765625 -88.328125 L 69.421875 -49.984375 L 69.421875 0 L 24.34375 0 L 24.34375 -205.65625 L 69.421875 -205.65625 L 69.421875 -105.296875 L 156.0625 -205.65625 L 213.296875 -205.65625 L 134.8125 -120.828125 L 218.734375 0 Z M 162.40625 0 "/></g></g></g><g fill="#f6f4f0" fill-opacity="1"><g transform="translate(204.296822, 259.529113)"><g><path d="M 26.671875 0 L 26.671875 -47.140625 L 73.4375 -47.140625 L 73.4375 0 Z M 26.671875 0 "/></g></g></g></g></g></svg>